<?xml version="1.0" standalone="no"?>
<!DOCTYPE svg PUBLIC "-//W3C//DTD SVG 20010904//EN"
 "http://www.w3.org/TR/2001/REC-SVG-20010904/DTD/svg10.dtd">
<svg version="1.0" xmlns="http://www.w3.org/2000/svg"
 width="448.000000pt" height="512.000000pt" viewBox="0 0 448.000000 512.000000"
 preserveAspectRatio="xMidYMid meet">

<g transform="translate(0.000000,512.000000) scale(0.100000,-0.100000)"
fill="#000000" stroke="none">
<path d="M1241 5070 c-61 -62 -140 -199 -176 -305 -36 -109 -46 -352 -16 -419
10 -22 26 -66 35 -96 20 -60 56 -134 81 -165 22 -27 17 -13 -27 72 -21 39 -45
102 -54 140 -10 37 -22 71 -28 75 -18 12 -11 109 12 160 66 148 248 259 292
179 9 -18 7 -19 -24 -14 -72 11 -141 -31 -205 -126 -47 -69 -78 -153 -51 -136
6 3 10 -2 10 -11 0 -38 34 -153 66 -223 25 -54 33 -86 32 -120 -2 -59 23 -116
61 -139 41 -25 114 -109 106 -122 -4 -6 -28 -24 -53 -40 -26 -16 -43 -30 -39
-30 13 0 85 39 92 50 10 16 25 11 25 -8 0 -10 9 -36 19 -58 11 -21 17 -43 14
-48 -4 -5 -2 -7 3 -4 5 3 14 1 20 -6 8 -9 5 -15 -12 -23 -18 -8 -24 -7 -28 4
-10 25 -26 3 -26 -34 0 -20 7 -44 16 -54 15 -16 14 -17 -5 -12 -16 4 -20 2
-15 -10 4 -11 -4 -21 -25 -32 -17 -8 -31 -13 -31 -10 0 4 -12 -3 -26 -14 -15
-12 -32 -21 -38 -21 -20 0 -88 -21 -83 -26 4 -5 95 18 138 34 14 6 46 24 71
41 39 26 53 31 88 26 56 -7 60 -10 60 -51 0 -69 -38 -127 -105 -162 -29 -15
-34 -21 -20 -22 41 -2 -32 -30 -103 -40 -75 -10 -162 -1 -228 25 -35 14 -37
14 -20 0 11 -8 24 -15 29 -15 4 0 6 -4 3 -9 -3 -5 5 -12 19 -15 38 -10 30 -30
-25 -60 -27 -15 -52 -31 -55 -37 -4 -5 -11 -7 -16 -4 -5 4 -15 3 -21 -2 -7 -4
-22 -9 -32 -10 -11 -2 -24 -7 -30 -12 -6 -4 -47 -16 -91 -27 -64 -15 -117 -19
-267 -19 -103 0 -180 -3 -173 -8 32 -18 186 -29 310 -23 173 9 189 10 195 16
6 8 183 71 186 67 2 -1 -2 -22 -8 -45 l-10 -42 -62 -1 c-58 -1 -59 -2 -26 -11
19 -5 45 -14 57 -18 18 -7 24 -4 36 23 9 18 18 44 22 59 5 19 24 37 63 60 70
41 77 43 68 29 -4 -6 -2 -11 3 -11 6 0 11 7 11 15 0 8 4 15 8 15 18 0 21 -14
7 -41 -21 -40 -18 -50 3 -14 23 36 52 63 52 46 0 -19 -50 -110 -116 -211 -73
-113 -191 -230 -286 -283 -36 -20 -69 -37 -73 -37 -4 0 21 30 54 66 91 100 73
98 -23 -2 -55 -57 -88 -84 -96 -79 -7 4 -15 3 -19 -4 -5 -7 -17 -8 -41 -1 -45
13 -107 13 -115 0 -3 -5 -13 -10 -21 -10 -11 0 -14 18 -14 88 0 107 -18 263
-32 277 -7 7 -8 0 -5 -20 13 -72 18 -163 9 -169 -13 -8 -43 4 -37 14 3 5 -7 6
-22 4 -16 -2 -33 0 -40 4 -14 9 -6 55 8 46 5 -3 6 1 3 9 -2 7 7 33 20 58 14
24 26 40 26 35 0 -4 8 2 18 14 14 18 22 20 42 12 14 -6 49 -20 78 -32 30 -12
56 -19 59 -16 3 3 -5 9 -18 14 -13 5 -50 19 -83 31 -32 12 -67 19 -77 16 -23
-8 -84 -101 -94 -143 -6 -28 -11 -33 -33 -30 -22 2 -28 10 -35 43 -4 22 -7 77
-5 123 l3 82 -49 17 c-56 18 -159 64 -154 68 2 1 30 -1 63 -6 78 -10 174 -10
130 0 -26 6 -21 8 32 14 80 10 141 28 280 83 109 44 114 45 170 34 51 -9 177
-3 145 7 -6 3 -10 9 -6 14 3 5 18 2 35 -6 45 -24 34 -9 -16 20 -25 15 -74 58
-110 97 -36 39 -65 67 -65 64 0 -17 88 -114 122 -136 21 -13 37 -25 35 -26 -1
-1 -67 4 -145 12 -130 12 -151 17 -219 49 -86 42 -185 134 -233 218 -38 67
-38 80 0 37 29 -32 28 -31 -6 23 -36 56 -55 77 -34 36 7 -11 9 -23 7 -26 -8
-7 -29 36 -24 50 2 7 -6 32 -19 57 -20 42 -42 110 -59 185 -6 25 1 20 43 -35
65 -85 172 -192 248 -246 55 -39 201 -110 209 -102 2 2 -21 19 -50 37 -46 29
-60 46 -90 106 -19 40 -45 114 -56 166 -38 172 -15 411 55 571 14 31 14 27 15
-82 1 -64 8 -146 17 -185 9 -38 16 -76 17 -82 0 -7 4 -13 8 -13 4 0 5 -10 1
-22 -4 -15 -2 -19 7 -13 10 6 11 1 6 -16 -4 -17 -3 -20 3 -10 8 11 11 10 16
-7 12 -35 104 -171 151 -221 41 -44 158 -111 171 -98 3 3 -9 10 -26 16 -61 21
-128 79 -146 126 -20 53 -15 163 9 210 8 17 24 62 36 100 19 64 69 160 79 150
2 -2 -1 -27 -7 -55 -13 -58 -13 -153 -1 -190 5 -16 6 -5 3 30 -7 75 12 194 41
253 27 55 21 59 -20 15 -94 -101 -164 -288 -166 -444 -1 -65 -2 -66 -19 -42
-37 49 -97 155 -117 209 -45 121 -64 315 -43 427 5 23 7 42 5 42 -11 0 -77
-150 -94 -212 -55 -204 -37 -471 44 -640 14 -29 23 -54 21 -57 -10 -10 -125
79 -206 159 -98 97 -146 163 -171 235 l-17 50 0 -40 c-1 -59 33 -199 70 -295
88 -230 231 -374 433 -440 l40 -13 -85 -35 c-73 -30 -88 -33 -114 -24 -27 10
-28 10 -11 -3 15 -11 16 -15 5 -19 -113 -36 -207 -50 -227 -34 -9 7 -13 8 -9
2 9 -15 -105 -26 -160 -15 -24 5 -43 7 -43 5 0 -10 77 -54 144 -81 l80 -32 1
-93 c3 -135 9 -145 125 -183 l95 -32 3 -61 c4 -74 -6 -82 -72 -57 -24 9 -49
14 -55 10 -18 -11 -13 -63 8 -74 31 -17 60 -104 97 -284 24 -113 44 -186 60
-214 36 -63 88 -113 115 -113 34 1 98 31 195 95 47 30 87 55 89 55 3 0 5 -15
5 -32 -1 -28 -17 -50 -99 -137 l-98 -103 -7 -121 c-12 -230 -2 -717 15 -717 4
0 15 21 25 47 42 114 99 244 143 328 49 95 226 355 240 355 18 0 70 -58 77
-85 10 -42 -10 -106 -57 -181 -40 -62 -41 -67 -30 -104 13 -44 54 -75 117 -88
37 -8 39 -10 36 -42 -2 -19 -6 -44 -9 -55 -3 -12 9 -3 33 24 l40 44 44 -23
c65 -32 90 -58 90 -94 1 -54 18 -110 41 -128 13 -11 39 -18 68 -18 45 -1 45
-1 21 -15 -36 -20 -54 -18 -96 10 -53 36 -94 41 -142 16 -56 -29 -84 -71 -86
-131 -1 -55 19 -90 74 -127 37 -26 74 -29 131 -12 35 11 40 10 70 -15 28 -24
39 -27 73 -22 23 3 58 7 78 9 21 3 48 11 61 20 23 15 26 14 52 -13 15 -16 38
-31 52 -35 14 -3 32 -13 41 -21 14 -14 67 -15 162 -3 8 1 40 -1 71 -5 52 -7
56 -6 66 16 9 19 11 11 17 -54 9 -87 28 -122 82 -144 51 -22 134 -17 212 11
38 14 72 25 76 25 3 0 6 -16 6 -35 0 -20 7 -51 15 -70 20 -49 105 -136 178
-183 94 -61 339 -192 359 -192 15 0 14 9 -8 92 -14 51 -31 115 -39 142 -8 27
-14 50 -12 51 1 1 18 8 37 15 54 22 110 79 139 140 22 48 25 68 25 160 0 119
-23 195 -75 255 -67 75 -176 97 -258 50 -24 -14 -45 -24 -47 -23 -6 7 -24 208
-34 386 -11 178 -10 195 6 220 17 27 17 27 -3 9 -20 -18 -21 -17 -33 65 -11
76 -22 106 -91 253 -24 53 -69 115 -82 115 -5 0 -5 -6 -1 -12 4 -7 -9 3 -29
21 -21 19 -37 37 -37 39 0 6 33 -20 47 -38 7 -8 13 -10 13 -4 0 16 -55 65 -65
57 -4 -5 -5 -3 -2 3 4 7 -12 27 -36 47 -23 19 -59 50 -81 70 l-38 36 7 66 c3
36 15 110 24 164 17 90 21 102 55 136 81 81 92 124 51 205 l-25 50 20 87 c10
49 33 129 50 178 17 50 33 95 34 100 1 6 9 24 18 40 8 17 21 46 27 66 25 77
120 139 213 139 72 0 128 -41 317 -228 98 -97 204 -213 237 -257 32 -44 62
-81 67 -83 4 -2 7 -14 7 -27 0 -40 -52 -79 -170 -128 l-112 -47 -41 29 c-55
38 -108 94 -146 155 -30 49 -31 53 -31 175 0 68 -3 121 -7 117 -4 -3 -6 -199
-5 -434 4 -604 -25 -879 -114 -1080 -12 -28 -21 -52 -18 -52 12 0 63 131 82
210 37 152 72 446 72 607 0 45 3 88 6 97 4 10 24 -19 58 -86 28 -56 57 -104
64 -106 8 -3 12 11 12 47 0 39 5 55 23 72 46 43 81 45 125 6 27 -25 119 -34
177 -18 35 9 42 9 52 -7 7 -9 19 -24 27 -33 18 -18 46 -82 46 -105 0 -22 46
-97 93 -150 72 -80 179 -95 291 -40 72 35 207 163 269 255 99 147 104 287 13
377 -68 69 -163 81 -237 30 -21 -15 -47 -49 -69 -92 l-35 -68 -59 3 c-52 2
-62 6 -91 37 -18 19 -40 34 -49 34 -13 0 -16 10 -16 50 0 45 -4 54 -41 92 -23
24 -57 75 -76 114 -44 92 -103 134 -185 134 -24 0 -59 30 -209 180 l-181 181
20 52 c11 29 23 61 27 72 5 17 10 13 36 -28 32 -52 49 -54 49 -4 0 47 35 105
95 160 130 116 192 379 127 529 -30 69 -69 91 -151 85 -79 -6 -59 12 23 20 69
7 107 -13 135 -70 12 -24 21 -54 21 -68 0 -17 3 -20 9 -11 5 8 23 17 41 21 20
4 39 16 48 31 l14 25 -19 -24 c-11 -13 -25 -22 -32 -20 -6 2 11 37 42 84 63
94 72 122 56 175 -15 49 -36 69 -82 77 -47 7 -75 -1 -115 -36 l-33 -29 38 11
c73 19 143 -39 143 -119 0 -22 -63 -154 -74 -154 -2 0 7 26 20 58 13 31 24 76
24 99 0 34 -5 46 -31 67 -48 40 -111 31 -179 -28 -16 -13 -20 -15 -11 -3 12
14 11 17 -3 17 -21 0 -20 8 2 28 10 10 13 13 6 9 -18 -12 -27 9 -19 43 8 36
48 70 84 71 18 1 21 3 8 6 -28 7 -71 -15 -89 -45 -18 -31 -30 -110 -18 -117 4
-3 2 -22 -5 -42 -10 -31 -22 -43 -64 -63 -56 -28 -134 -98 -157 -143 -25 -48
-64 -223 -64 -288 l0 -62 49 100 c61 125 106 173 161 173 59 0 88 -31 96 -102
10 -89 0 -120 -68 -201 -69 -82 -101 -146 -92 -185 4 -20 3 -23 -4 -13 -11 15
-16 6 -56 -101 l-18 -46 -42 19 c-92 42 -223 17 -282 -54 -29 -34 -75 -131
-95 -197 -18 -59 -29 -31 -29 71 0 79 2 87 26 110 14 13 30 33 36 44 6 11 -8
3 -30 -19 l-40 -38 -11 38 c-6 21 -9 39 -7 41 2 2 31 21 66 42 42 25 71 36 87
33 l24 -5 -33 -35 -33 -36 40 32 c22 18 45 37 50 43 57 62 82 79 132 90 29 7
59 19 66 27 10 14 9 15 -8 7 -34 -14 -231 -47 -273 -46 -13 1 -31 8 -40 18
-16 16 -16 16 5 11 16 -4 20 -2 16 9 -4 11 0 14 18 11 13 -2 23 -8 22 -14 -2
-10 63 -2 164 21 l31 7 -29 48 c-34 55 -35 60 -11 60 22 0 42 19 42 40 -1 13
-2 13 -13 -2 -8 -9 -22 -15 -33 -13 -10 2 -22 4 -25 4 -20 3 -79 74 -97 118
-25 59 -27 79 -9 87 6 3 3 5 -8 3 -11 -1 -27 2 -35 7 -12 7 -13 6 -2 -5 6 -7
12 -28 12 -46 l0 -34 -98 88 c-87 78 -182 145 -182 129 0 -4 24 -22 53 -40 58
-37 217 -182 217 -197 0 -11 14 -30 48 -64 15 -15 20 -29 15 -40 -5 -14 -3
-16 7 -10 9 6 11 4 5 -4 -5 -9 -12 -7 -27 8 -10 12 -16 26 -13 31 4 6 3 9 -2
8 -15 -5 -364 364 -359 378 3 8 -6 21 -19 30 -14 9 -25 21 -25 26 0 6 7 4 17
-3 15 -13 16 -11 11 14 -7 35 14 20 32 -23 7 -17 16 -30 21 -30 17 0 8 16 -46
85 -30 38 -55 77 -55 88 0 11 -17 37 -39 58 -32 32 -46 39 -78 39 -45 0 -103
-17 -103 -31 0 -12 7 -11 29 3 16 9 27 8 60 -7 39 -17 52 -37 32 -50 -5 -3
-12 -1 -16 5 -3 5 -12 10 -18 10 -7 0 -4 -7 6 -14 19 -15 22 -26 7 -26 -17 0
-138 79 -143 94 -7 18 -124 33 -139 18 -8 -8 -3 -13 16 -18 14 -3 26 -10 26
-15 0 -5 17 -9 38 -9 38 0 53 -9 141 -87 l36 -32 -21 -28 c-36 -48 -118 -37
-108 15 3 17 -3 39 -16 61 -20 32 -23 33 -63 26 -23 -4 -60 -8 -81 -9 -42 -1
-68 -19 -152 -103 -23 -24 -49 -43 -58 -43 -15 0 -67 20 -76 30 -3 3 -23 13
-45 24 l-40 18 52 47 c29 26 77 57 110 69 53 20 55 22 18 16 -80 -11 -188
-107 -254 -224 l-22 -39 61 -35 c34 -20 64 -36 69 -36 4 0 12 -5 18 -11 9 -9
2 -25 -24 -65 l-35 -53 -47 39 c-26 22 -53 40 -60 40 -7 0 -9 5 -5 13 6 9 4 9
-8 -1 -21 -17 -38 -87 -38 -157 0 -51 3 -60 38 -96 20 -23 39 -47 42 -56 4 -8
13 9 24 42 24 78 130 278 181 345 93 121 204 220 245 220 20 0 18 -3 -16 -29
-36 -26 -180 -172 -214 -216 -71 -94 -159 -258 -185 -347 -29 -101 -64 -104
-112 -10 -28 55 -33 74 -33 136 0 146 67 324 160 429 28 31 48 57 44 57 -5 0
-30 -24 -57 -52 -44 -49 -48 -51 -43 -25 9 51 -26 110 -70 119 -17 4 -15 8 15
36 18 18 29 32 25 32 -37 -2 -155 -127 -184 -196 -62 -143 -41 -251 72 -382
48 -56 31 -60 -23 -5 -27 29 -58 55 -68 58 -25 8 -42 50 -48 117 -6 64 13 172
33 193 7 7 11 15 8 18 -10 10 40 99 84 149 26 28 64 59 87 69 33 16 35 18 11
14 -16 -4 -40 -15 -54 -25 -13 -11 -29 -17 -35 -13 -6 3 -7 1 -3 -5 4 -7 3
-12 -2 -12 -14 0 -22 25 -22 65 0 18 -9 54 -19 78 -11 25 -17 48 -14 51 4 3 0
6 -7 6 -9 0 -7 5 6 15 35 26 70 19 100 -22 15 -21 43 -54 62 -75 19 -20 31
-41 28 -47 -4 -7 1 -11 13 -11 30 0 50 -10 45 -24 -5 -12 102 -53 113 -43 2 3
-10 8 -27 12 -17 4 -43 20 -57 35 -13 16 -34 31 -46 34 -30 9 -110 106 -120
147 -5 19 -21 48 -37 64 -45 48 -63 115 -66 238 -1 59 -4 110 -7 113 -2 3 -19
-9 -36 -26z m52 -245 c8 -22 17 -47 21 -56 6 -13 -1 -18 -29 -23 -53 -10 -55
-6 -62 117 -4 65 -1 85 17 123 12 25 20 47 18 50 -10 10 -41 -38 -94 -146 -54
-110 -83 -207 -84 -280 0 -19 -7 -46 -15 -60 -14 -24 -14 -23 -15 26 0 66 40
225 75 295 50 99 97 170 119 178 20 8 21 5 27 -88 4 -53 13 -114 22 -136z
m1008 -403 c-7 -2 -18 1 -23 6 -8 8 -4 9 13 5 13 -4 18 -8 10 -11z m-1038 -38
c8 -8 -20 -64 -32 -64 -15 0 -30 47 -18 59 12 12 40 15 50 5z m1067 -16 c0
-10 -46 -77 -61 -88 -3 -3 -16 -20 -27 -39 -24 -40 -100 -135 -161 -203 -32
-35 -51 -48 -71 -48 -15 0 -52 -5 -83 -11 l-57 -12 25 -21 c33 -28 90 -62 81
-48 -8 14 4 43 15 36 5 -3 9 2 9 10 0 8 -6 17 -12 19 -7 2 0 3 17 1 35 -5 75
-40 75 -67 0 -14 -5 -17 -17 -13 -10 4 -14 4 -10 0 4 -4 -1 -13 -11 -20 -21
-16 -11 -17 62 -5 44 7 160 -2 291 -25 l40 -7 -41 44 c-103 112 -138 170 -150
254 -10 65 -11 63 45 145 l49 71 18 -48 c33 -89 100 -177 250 -328 82 -82 163
-171 179 -198 23 -36 39 -50 67 -57 31 -9 85 -56 75 -66 -2 -2 -84 23 -184 55
-100 33 -243 71 -319 86 -162 33 -250 30 -429 -11 -142 -33 -220 -62 -380
-142 -124 -61 -132 -64 -175 -56 -36 7 -46 14 -48 32 -3 22 12 30 23 12 3 -5
11 -10 16 -10 6 0 7 5 4 11 -7 10 21 38 39 39 5 0 6 -13 3 -30 -8 -38 10 -40
50 -6 35 29 181 103 291 146 95 38 112 58 20 25 l-62 -22 -23 34 c-13 19 -23
39 -23 46 0 17 38 39 52 31 7 -5 9 -2 5 8 -4 12 3 17 25 22 24 5 34 1 50 -19
11 -14 29 -30 41 -37 17 -9 15 -4 -9 24 -18 20 -34 42 -37 50 -3 11 -8 11 -26
0 -23 -13 -28 -4 -8 17 8 9 1 8 -20 -3 -50 -25 -61 -18 -25 14 58 54 21 31
-44 -26 -35 -31 -64 -50 -64 -42 0 8 -5 6 -11 -5 -8 -14 -14 -15 -24 -7 -14
12 -8 27 36 99 18 28 31 27 27 -1 -2 -13 -8 -22 -15 -21 -6 1 -13 -9 -16 -22
-6 -33 9 -32 27 3 8 15 44 67 80 115 36 49 66 93 66 98 0 5 5 9 11 9 6 0 25
11 41 26 33 27 120 74 139 74 14 0 129 -51 129 -57 0 -2 -5 -14 -11 -26 -17
-36 35 29 97 121 50 74 84 102 84 70z m-256 -55 c4 -27 2 -43 -4 -43 -5 0 -10
8 -10 19 0 10 -3 34 -6 52 -5 23 -3 31 3 24 6 -5 13 -29 17 -52z m161 19 c-6
-7 -45 19 -45 29 0 5 11 2 24 -8 13 -10 23 -19 21 -21z m145 -21 c-1 -13 -4
-12 -15 3 -8 11 -15 27 -15 35 1 13 4 12 15 -3 8 -11 15 -27 15 -35z m-1054
10 c-3 -4 21 -34 54 -65 33 -32 60 -61 60 -65 0 -4 -8 -24 -18 -45 l-18 -37
-25 20 c-14 11 -45 45 -68 75 l-42 55 18 28 c16 25 32 42 41 43 2 0 1 -4 -2
-9z m622 -70 c3 -8 -4 -12 -19 -9 -19 2 -25 -2 -27 -20 -2 -16 -8 -22 -18 -18
-8 3 -14 -1 -14 -8 0 -7 -11 -18 -25 -24 -15 -7 -22 -17 -19 -25 3 -9 -3 -16
-13 -19 -13 -4 -19 1 -20 14 -1 10 1 17 5 15 4 -2 17 7 29 20 12 13 20 23 18
23 -11 0 42 53 60 60 25 11 37 8 43 -9z m1275 -56 c-47 -44 -78 -61 -52 -28
14 17 88 73 96 73 3 0 -17 -20 -44 -45z m-73 -75 c-6 -11 -13 -20 -16 -20 -2
0 0 9 6 20 6 11 13 20 16 20 2 0 0 -9 -6 -20z m211 -2 c36 -20 39 -25 39 -62
l-1 -41 -21 36 c-29 49 -92 72 -139 52 -18 -8 -37 -19 -41 -26 -4 -6 -10 -9
-13 -6 -10 10 60 57 91 62 16 2 33 5 38 6 4 0 26 -9 47 -21z m-1605 -23 c-3
-10 1 -15 12 -15 14 0 15 -2 2 -10 -19 -12 -33 1 -24 23 3 9 8 17 11 17 3 0 3
-7 -1 -15z m-6 -56 c0 -4 -7 -6 -15 -2 -9 3 -15 2 -14 -3 1 -5 1 -16 0 -24 -1
-12 -4 -11 -12 3 -8 13 -7 22 1 32 12 14 40 10 40 -6z m0 -127 c0 -5 -12 -20
-27 -34 -16 -14 -73 -71 -128 -128 -54 -56 -101 -98 -103 -92 -4 14 25 48 139
165 88 88 119 112 119 89z m-116 -41 c3 -5 -8 -23 -24 -41 -17 -18 -30 -28
-30 -23 0 5 8 18 18 29 10 11 17 25 14 32 -4 14 14 17 22 3z m86 -30 c0 -5 -7
-12 -16 -15 -14 -5 -15 -4 -4 9 14 17 20 19 20 6z m520 -60 c0 -6 -4 -13 -10
-16 -5 -3 -10 1 -10 9 0 9 5 16 10 16 6 0 10 -4 10 -9z m-42 -76 c-5 -73 -6
-77 -44 -110 -21 -19 -58 -44 -81 -57 -24 -13 -43 -27 -43 -31 0 -11 63 27
116 70 23 18 45 33 51 33 5 0 21 6 36 13 20 9 29 22 33 49 9 51 25 38 19 -14
-4 -28 -1 -44 7 -50 10 -6 9 -8 -3 -8 -9 0 -24 -9 -34 -20 -14 -16 -15 -20 -4
-20 8 0 20 5 27 12 20 20 14 -61 -8 -111 -11 -23 -52 -76 -92 -117 -61 -63
-76 -74 -105 -74 -35 0 -149 36 -199 63 l-29 16 45 1 c25 0 50 4 57 8 6 4 -19
7 -55 7 -67 1 -162 28 -162 47 0 5 -4 6 -10 3 -6 -4 -10 8 -10 29 0 41 5 43
34 19 18 -15 18 -14 -1 8 -35 39 -29 69 6 32 34 -36 95 -87 76 -64 -11 14 -36
39 -56 57 -39 36 -56 80 -51 132 3 28 10 36 40 49 89 38 217 56 249 35 7 -4
16 -26 21 -48 10 -46 -2 -100 -38 -161 l-22 -38 26 30 c34 39 57 117 50 166
-6 34 -4 39 12 40 17 0 16 2 -3 11 -28 13 -29 23 -5 38 14 9 13 10 -8 4 -14
-3 -22 -3 -17 2 9 10 77 21 136 23 l44 1 -5 -75z m132 62 c0 -21 -12 -28 -27
-16 -19 16 -16 29 7 29 11 0 20 -6 20 -13z m-66 -6 c3 -5 -3 -11 -15 -14 -16
-4 -18 -3 -8 9 13 16 16 17 23 5z m176 -6 c56 -10 70 -16 70 -27 0 -6 -10 -8
-26 -4 -17 5 -23 3 -19 -4 3 -5 16 -10 29 -10 12 0 28 -6 35 -12 10 -11 12 -9
9 6 -6 37 19 26 36 -16 29 -73 41 -215 28 -348 -16 -159 -24 -180 -41 -104
-24 108 -127 338 -193 430 -27 38 -30 74 -7 74 5 0 9 7 9 16 0 10 6 14 18 10
9 -2 33 -7 52 -11z m-435 -15 c4 -6 -5 -10 -20 -10 -15 0 -24 4 -20 10 3 6 12
10 20 10 8 0 17 -4 20 -10z m765 -219 c37 -30 13 -25 -59 12 -71 36 -96 64
-105 117 l-6 35 72 -72 c40 -40 84 -81 98 -92z m563 97 c-18 -13 -39 -36 -47
-52 -9 -18 -16 -24 -21 -16 -11 18 56 90 84 90 9 0 2 -9 -16 -22z m-1658 -95
c-5 -126 -38 -222 -101 -293 -44 -48 -184 -140 -214 -140 -12 1 -12 2 2 11 35
20 111 133 144 212 18 45 34 88 34 95 0 7 9 32 19 55 11 24 25 61 32 84 12 37
48 69 81 72 4 1 5 -43 3 -96z m705 36 c0 -5 -4 -9 -8 -9 -5 0 -9 7 -9 15 0 8
4 12 9 9 4 -3 8 -9 8 -15z m-819 -66 c-9 -15 -10 -12 -11 18 0 20 3 39 8 43
11 12 14 -42 3 -61z m1198 -3 c1 -10 -109 -73 -115 -67 -4 3 -9 35 -11 70 l-6
65 66 -32 c36 -17 66 -33 66 -36z m131 52 c0 -18 -47 -52 -63 -46 -37 14 -6
43 56 53 4 0 7 -3 7 -7z m-516 -60 c-2 -30 -66 -132 -83 -132 -4 0 7 30 26 66
18 37 33 75 33 86 0 11 5 18 13 15 6 -2 11 -18 11 -35z m46 -8 c0 -8 4 -13 8
-10 17 11 89 -84 75 -98 -14 -14 -44 -5 -53 17 -19 48 -8 -3 19 -88 30 -94 43
-98 15 -6 -17 58 -17 58 10 63 17 2 23 -8 39 -62 l20 -64 -38 -33 c-48 -42
-59 -42 -51 0 4 23 -3 67 -23 138 -39 140 -46 173 -32 165 6 -4 11 -14 11 -22z
m840 2 c0 -11 -19 -15 -25 -6 -3 5 1 10 9 10 9 0 16 -2 16 -4z m-1512 -93 c15
-10 35 -27 44 -38 10 -11 17 -17 18 -12 0 11 69 -28 87 -50 8 -10 11 -12 7 -4
-5 10 -1 11 17 6 13 -4 25 -11 27 -15 2 -4 11 -6 21 -3 26 7 35 -13 17 -39
-15 -21 -13 -61 5 -84 13 -16 0 -24 -31 -18 -15 4 -31 1 -34 -5 -5 -7 8 -11
41 -11 26 0 65 -3 86 -6 34 -6 37 -5 37 17 0 13 -11 48 -25 77 l-24 52 39 0
c30 0 43 6 64 30 20 24 30 29 51 24 14 -3 25 -13 25 -21 0 -10 6 -12 19 -8 21
6 76 -35 86 -65 3 -10 16 -20 28 -22 21 -3 19 -6 -17 -41 -36 -36 -38 -40 -25
-63 30 -57 119 -93 180 -75 37 11 39 14 39 54 0 31 3 38 10 27 17 -26 12 -95
-8 -113 -33 -30 -87 -31 -147 -3 -65 30 -105 73 -122 130 l-11 41 -1 -41 c-1
-60 31 -103 106 -139 56 -27 62 -33 62 -61 1 -17 -6 -51 -14 -75 -14 -42 -14
-43 3 -20 9 14 25 34 34 45 l17 21 1 -22 c0 -12 -5 -45 -11 -74 -13 -60 -76
-141 -246 -318 -57 -59 -103 -114 -103 -122 0 -7 -7 -23 -15 -33 -8 -11 -15
-32 -15 -47 0 -27 -20 -115 -35 -151 -9 -23 17 -24 39 -3 26 27 31 83 14 166
-2 11 16 30 51 53 l53 36 -7 -27 c-8 -35 -24 -55 -37 -47 -5 3 -17 -1 -27 -11
-16 -13 -17 -22 -9 -53 27 -100 26 -102 -51 -164 -38 -32 -72 -58 -75 -58 -10
0 -136 127 -136 138 0 6 11 32 24 57 26 48 25 70 -4 95 -10 8 -21 26 -25 39
l-7 24 33 -25 c19 -14 42 -28 51 -31 16 -6 16 -9 -2 -49 -30 -66 -22 -148 17
-162 8 -4 11 -1 7 5 -4 8 1 9 17 5 19 -5 18 -3 -6 10 -16 9 -33 22 -37 28 -14
21 -8 63 17 112 15 29 21 50 14 53 -13 4 -22 15 -57 67 -15 23 -51 61 -79 83
-29 23 -53 43 -53 46 0 2 24 -7 54 -20 70 -31 116 -42 203 -49 l72 -5 58 43
c94 71 229 234 209 253 -2 3 -14 -12 -24 -34 -11 -21 -42 -63 -70 -93 l-49
-54 -6 78 c-9 108 -24 126 -19 22 6 -114 0 -131 -55 -166 -40 -26 -57 -30
-115 -30 -85 0 -148 23 -148 54 0 30 -28 124 -39 130 -5 3 -6 -14 -4 -39 5
-41 4 -43 -16 -38 -11 3 -21 8 -21 12 0 3 -14 22 -31 41 -34 38 -89 140 -89
165 0 9 -6 26 -14 38 -17 26 -36 164 -36 257 0 66 23 166 42 185 7 7 8 2 4
-15 -3 -14 -3 -19 0 -12 5 10 10 8 21 -7 8 -12 24 -26 36 -32 l22 -11 -23 21
c-45 43 -55 68 -48 116 7 45 26 63 26 25 0 -11 16 -37 36 -58 l35 -37 -32 47
c-35 51 -33 74 4 41 48 -44 157 -95 157 -74 0 6 -9 11 -21 11 -11 0 -18 4 -15
8 3 5 -8 22 -24 37 -17 16 -30 24 -30 17 0 -6 11 -19 25 -28 31 -20 26 -30 -7
-13 -33 18 -116 89 -122 105 -7 19 9 18 42 -3z m918 -148 l6 -60 -27 55 c-27
54 -35 136 -17 164 8 14 30 -78 38 -159z m-27 -31 c42 -94 44 -114 16 -219
-14 -54 -25 -106 -25 -116 0 -37 -18 -18 -43 44 -28 66 -32 155 -10 207 6 14
16 49 24 78 7 28 14 52 15 52 2 0 12 -21 23 -46z m-642 -16 c-3 -7 -5 -2 -5
12 0 14 2 19 5 13 2 -7 2 -19 0 -25z m563 -39 c0 -45 -5 -47 -37 -17 l-23 22
21 22 c28 30 39 22 39 -27z m-492 12 c3 -8 -1 -12 -9 -9 -7 2 -15 10 -17 17
-3 8 1 12 9 9 7 -2 15 -10 17 -17z m-482 -58 c-3 -27 -8 -74 -11 -106 -4 -31
-10 -55 -15 -52 -4 2 -15 -10 -24 -28 -20 -42 -21 -18 -1 84 13 68 42 149 53
149 2 0 1 -21 -2 -47z m844 1 c0 -16 -26 -19 -35 -4 -3 6 -4 14 0 20 8 13 35
1 35 -16z m-941 -51 c-7 -8 -22 -19 -34 -24 -11 -5 -33 -17 -50 -27 -29 -18
-75 -34 -75 -26 0 2 12 10 28 18 15 8 52 36 82 62 43 37 56 43 58 30 2 -9 -2
-24 -9 -33z m-64 17 c-9 -15 -126 -93 -131 -87 -3 2 23 25 57 51 60 44 87 57
74 36z m2141 -86 c-9 -8 -20 -12 -26 -9 -19 12 -10 25 16 25 23 0 24 -1 10
-16z m106 -46 c8 -13 18 -33 22 -45 12 -38 78 -133 92 -133 7 0 18 -19 25 -42
14 -54 -1 -129 -37 -184 -34 -52 -128 -112 -188 -120 -25 -4 -19 2 33 30 35
20 75 46 89 58 36 34 69 96 82 153 12 54 5 110 -10 85 -7 -12 -13 -10 -34 9
-14 13 -24 27 -22 30 2 3 -2 20 -9 36 -9 20 -14 24 -14 12 -1 -27 -36 -89 -67
-121 -31 -31 -75 -53 -170 -85 -127 -44 -121 -11 13 63 48 27 102 59 118 72
33 25 68 78 58 88 -3 3 -2 6 4 6 6 0 14 8 18 18 5 13 3 14 -6 5 -9 -9 -17 -2
-33 30 -14 28 -29 43 -44 45 -23 3 -23 5 -7 22 16 17 20 18 45 5 15 -8 34 -24
42 -37z m-2176 -97 c-8 -62 -17 -116 -20 -119 -9 -9 -6 36 9 143 8 55 15 105
16 110 1 6 3 3 6 -6 2 -8 -3 -66 -11 -128z m1139 -77 c34 -83 34 -87 18 -117
-9 -18 -64 -79 -122 -137 -58 -58 -140 -141 -183 -185 -109 -114 -187 -189
-193 -184 -2 3 106 116 240 253 162 165 246 257 250 275 6 28 -14 87 -76 219
-16 34 -29 66 -29 70 1 13 60 -108 95 -194z m-1417 130 c0 -15 -7 -28 -17 -31
-9 -2 -24 -9 -34 -14 -33 -18 -32 0 3 36 41 42 48 43 48 9z m299 -36 c-3 -8
-6 -5 -6 6 -1 11 2 17 5 13 3 -3 4 -12 1 -19z m-401 -65 c-11 -11 -19 6 -11
24 8 17 8 17 12 0 3 -10 2 -21 -1 -24z m2106 -69 c17 -20 17 -21 -32 -69 l-50
-49 0 107 0 108 32 -38 c18 -21 40 -47 50 -59z m-2125 55 c49 -19 158 -34 286
-38 15 -1 27 -5 27 -9 0 -13 -172 -41 -350 -57 -85 -9 -170 -19 -187 -24 -54
-15 -37 2 39 39 39 19 89 50 111 68 45 37 38 35 74 21z m3191 -48 c9 -5 1 -10
-25 -14 -57 -10 -128 -69 -158 -133 -24 -51 -34 -61 -47 -48 -8 7 58 133 81
157 33 34 121 56 149 38z m-1028 -65 c0 -3 -4 -8 -10 -11 -5 -3 -10 -1 -10 4
0 6 5 11 10 11 6 0 10 -2 10 -4z m-2834 -23 c-1 -15 11 -19 79 -24 44 -3 107
-13 140 -22 66 -17 231 -40 282 -40 18 1 31 -2 29 -5 -2 -4 19 -8 47 -9 29 -1
82 -4 118 -8 49 -5 81 -3 124 10 31 9 59 14 61 12 8 -8 -102 -51 -146 -58
l-45 -6 45 -2 c38 -2 41 -4 23 -11 -13 -5 -23 -15 -23 -23 0 -9 -9 -12 -30 -9
-28 4 -29 5 -13 19 17 13 16 13 -3 4 -22 -10 -194 6 -194 18 0 3 -33 4 -72 1
-97 -7 -96 -6 -104 -251 -5 -179 -7 -196 -26 -216 -27 -29 -33 -29 -63 1 -16
16 -23 31 -19 43 4 13 3 15 -4 4 -8 -10 -13 -9 -25 10 -9 12 -13 27 -10 32 3
6 1 7 -5 3 -14 -8 -30 49 -81 291 -23 108 -56 190 -82 204 -19 10 -27 49 -10
49 5 0 8 -8 7 -17z m1025 -20 c-8 -15 -10 -15 -11 -2 0 17 10 32 18 25 2 -3
-1 -13 -7 -23z m2407 -51 c3 -19 -1 -23 -15 -20 -10 2 -19 14 -21 26 -3 19 1
23 15 20 10 -2 19 -14 21 -26z m30 16 c7 -7 12 -34 12 -61 0 -74 -38 -141 -86
-152 -11 -2 -32 -8 -49 -13 -16 -5 -38 -6 -48 -3 -14 5 -7 12 32 30 56 25 93
64 84 89 -4 13 -3 14 5 3 16 -22 34 24 30 75 -3 46 0 52 20 32z m-2452 -28
c-5 -28 -1 -34 41 -63 26 -18 81 -64 123 -103 41 -39 112 -104 158 -144 45
-39 82 -76 82 -80 0 -20 -19 -18 -33 3 -19 28 -87 99 -87 91 0 -4 -10 4 -23
17 -89 94 -289 254 -301 241 -3 -3 -6 0 -6 6 0 6 6 15 13 19 8 4 16 16 20 26
11 28 20 19 13 -13z m2570 -41 c13 -15 15 -22 6 -31 -16 -16 -92 19 -92 42 0
22 63 15 86 -11z m55 -5 c12 -13 19 -27 16 -31 -4 -3 -7 -1 -7 5 0 7 -6 12
-13 12 -8 0 -24 11 -36 24 -22 23 -22 24 -3 19 11 -2 30 -16 43 -29z m-727 4
c-32 -37 -59 -57 -63 -46 -4 13 49 68 67 68 12 0 11 -5 -4 -22z m1026 3 c0
-11 -4 -23 -10 -26 -15 -9 -12 -27 3 -19 6 4 4 -2 -5 -13 -10 -11 -18 -28 -18
-38 0 -26 -39 -65 -65 -65 -21 0 -40 -25 -48 -65 -2 -11 -7 3 -11 30 -4 28
-14 62 -21 76 -8 14 -11 30 -7 34 4 5 2 5 -4 2 -7 -4 -15 0 -18 9 -5 13 -1 15
24 12 26 -4 36 2 68 38 31 35 43 42 75 43 30 1 37 -2 37 -18z m-3311 -75 c87
-14 176 -36 229 -57 13 -5 56 -9 97 -9 99 0 105 -3 105 -56 0 -38 4 -46 25
-54 14 -5 33 -9 43 -8 74 6 96 -2 144 -52 27 -28 46 -55 43 -60 -3 -4 -29 -16
-58 -26 -28 -9 -110 -44 -182 -78 -118 -57 -135 -68 -186 -127 -85 -98 -221
-278 -284 -376 -63 -98 -173 -320 -200 -400 -9 -29 -21 -55 -26 -58 -5 -4 -9
37 -10 97 0 57 -2 162 -3 233 -2 72 0 200 3 286 l6 157 93 96 c51 52 97 107
102 120 13 36 -11 123 -63 225 -44 88 -111 166 -134 157 -9 -4 -11 -1 -7 5 8
14 126 7 263 -15z m2965 -31 c-41 -38 -45 -47 -43 -81 4 -57 27 -90 78 -114
l46 -21 -39 5 c-44 6 -82 36 -102 81 -9 20 -13 24 -14 12 0 -26 -22 -11 -58
39 -21 28 -27 45 -20 52 15 15 68 -18 68 -42 0 -30 10 -13 23 39 10 38 19 51
46 66 57 30 65 12 15 -36z m112 33 c3 -4 -1 -5 -10 -4 -8 1 -18 5 -22 8 -3 4
1 5 10 4 8 -1 18 -5 22 -8z m21 -55 c13 -15 23 -37 23 -48 0 -17 2 -17 10 -5
7 11 10 6 10 -22 0 -28 -8 -47 -31 -73 -30 -34 -59 -46 -59 -25 0 6 6 10 14
10 18 0 56 47 56 69 -1 9 -7 2 -14 -15 -23 -53 -81 -60 -127 -15 -23 24 -29
38 -29 73 0 24 7 54 16 67 15 20 23 23 63 18 34 -4 51 -12 68 -34z m-894 -25
c-6 -31 -18 -36 -27 -12 -4 10 1 22 11 29 22 16 22 16 16 -17z m489 -75 c6
-16 10 -36 10 -46 0 -10 4 -15 10 -11 6 4 8 3 4 -4 -3 -5 0 -13 6 -15 9 -4 7
-6 -3 -6 -24 -1 -36 18 -42 67 -6 49 -1 54 15 15z m-1262 7 c0 -5 -8 -10 -17
-10 -15 0 -16 2 -3 10 19 12 20 12 20 0z m1813 -61 c-34 -52 -150 -150 -212
-180 -62 -31 -154 -31 -202 -1 -46 28 -96 92 -73 92 9 0 18 -8 21 -17 10 -38
54 -58 125 -58 40 0 72 5 80 13 6 6 19 12 27 12 28 0 120 63 131 91 17 41 77
88 113 89 15 0 14 -6 -10 -41z m-3514 -120 c1 -55 -3 -80 -13 -88 -13 -11 -13
-7 -4 26 6 21 8 72 6 113 -3 42 -2 64 2 50 5 -14 8 -59 9 -101z m1708 64 c23
-32 65 -83 96 -113 66 -67 88 -122 123 -305 23 -120 35 -307 21 -322 -4 -3
-40 15 -82 40 -59 35 -85 45 -111 42 -19 -2 -34 1 -34 6 0 5 -46 7 -102 4
-130 -5 -260 6 -266 23 -3 9 32 12 155 12 183 0 229 9 244 48 17 43 23 258 10
342 -13 83 -47 185 -81 243 -33 55 -18 45 27 -20z m1487 36 c-3 -5 -24 -19
-47 -31 -52 -26 -122 -27 -146 -2 -9 9 -11 14 -6 12 6 -3 37 -1 70 4 33 5 66
10 73 10 6 1 12 5 12 10 0 5 4 7 9 3 5 -3 12 -1 16 5 4 6 11 8 16 4 5 -3 7
-10 3 -15z m-1610 -43 c9 -30 21 -58 26 -61 15 -10 13 -128 -2 -122 -7 2 -18
-3 -24 -11 -6 -9 -18 -13 -27 -9 -15 6 -15 10 -2 48 8 23 15 53 15 66 0 21 -3
23 -14 14 -27 -22 -32 31 -8 76 7 12 12 29 12 37 0 30 9 16 24 -38z m-574 -66
c0 -16 -4 -32 -10 -35 -6 -4 -10 10 -10 35 0 25 4 39 10 35 6 -3 10 -19 10
-35z m682 -3 c20 -39 37 -121 42 -207 6 -93 6 -93 -35 73 -11 43 -28 94 -39
115 -11 20 -20 40 -20 43 0 15 41 -5 52 -24z m-492 -122 c10 -3 33 10 61 36
52 48 79 65 79 49 0 -7 -10 -48 -22 -93 -21 -84 -29 -217 -15 -287 7 -35 6
-36 -52 -68 l-59 -32 -56 24 c-31 14 -58 31 -60 38 -3 7 -7 114 -10 237 l-5
224 61 -61 c34 -34 69 -64 78 -67z m480 -15 c0 -14 -10 -41 -23 -60 l-22 -35
-3 75 c-2 41 0 86 4 100 6 24 7 24 25 -15 10 -22 19 -51 19 -65z m-201 53 c-7
-8 -20 -18 -30 -23 -14 -8 -16 -6 -11 13 6 26 20 37 39 30 11 -4 11 -8 2 -20z
m-474 -50 c14 -31 23 -58 21 -60 -8 -9 -56 72 -56 94 0 36 8 28 35 -34z m-160
-64 c0 -8 -10 -15 -23 -17 -21 -3 -22 -2 -10 17 14 23 33 23 33 0z m1185 -41
c0 -4 18 -46 40 -94 41 -87 45 -106 71 -324 12 -104 16 -155 24 -340 4 -80 11
-149 16 -155 15 -15 10 -48 -11 -82 -18 -30 -24 -33 -70 -33 -27 0 -67 -6 -87
-14 -38 -14 -86 -27 -100 -26 -11 0 -3 130 9 153 9 17 12 263 5 404 -2 49 0
53 25 62 24 9 27 15 33 85 4 42 10 76 14 76 3 0 5 74 5 165 -1 140 1 163 12
148 7 -10 14 -21 14 -25z m-972 15 c2 -9 -9 -13 -35 -13 -21 -1 -66 -7 -100
-14 -34 -7 -80 -12 -102 -11 -67 4 -54 -25 37 -81 215 -133 289 -175 311 -181
52 -13 191 87 191 137 0 10 -12 28 -27 39 -16 11 -22 21 -15 21 8 0 27 -13 43
-30 28 -28 29 -31 15 -58 -27 -53 -138 -131 -187 -132 -43 0 -310 145 -403
220 -6 6 -26 21 -43 36 -51 40 -44 54 30 55 34 0 94 7 132 14 83 16 147 15
153 -2z m609 -154 c-5 -78 -9 -86 -27 -64 -7 8 -8 15 -3 15 5 0 9 19 8 43 -1
36 12 77 23 77 2 0 2 -32 -1 -71z m-930 -30 c-13 -30 -30 -72 -36 -94 -7 -22
-19 -53 -26 -70 -14 -34 -27 -85 -22 -85 3 0 18 37 36 83 17 45 34 87 39 92
12 17 47 41 38 28 -4 -8 -2 -13 7 -13 11 0 14 -15 13 -62 l-2 -63 -67 -64
c-37 -35 -67 -69 -67 -74 0 -6 34 22 75 62 65 63 95 80 95 52 0 -4 -28 -30
-62 -57 -35 -27 -87 -71 -115 -98 -57 -53 -60 -51 -42 36 17 83 46 174 90 283
50 121 49 119 61 107 6 -6 1 -29 -15 -63z m149 -62 c51 -61 90 -176 65 -191
-7 -5 -8 -1 -5 9 7 18 -24 95 -38 95 -4 0 -7 3 -6 8 6 19 -36 83 -58 88 -13 3
-24 12 -24 19 0 21 38 5 66 -28z m44 -12 c0 -8 -2 -15 -4 -15 -2 0 -6 7 -10
15 -3 8 -1 15 4 15 6 0 10 -7 10 -15z m725 5 c-3 -5 -10 -10 -16 -10 -5 0 -9
5 -9 10 0 6 7 10 16 10 8 0 12 -4 9 -10z m72 -22 c-3 -7 -5 -2 -5 12 0 14 2
19 5 13 2 -7 2 -19 0 -25z m-869 -11 c23 -24 52 -87 52 -112 0 -25 -39 -17
-71 14 -24 24 -29 38 -29 75 0 52 14 59 48 23z m99 3 c1 -11 -2 -18 -8 -15
-11 7 -12 35 -1 35 4 0 8 -9 9 -20z m-317 6 c0 -3 -4 -8 -10 -11 -5 -3 -10 -1
-10 4 0 6 5 11 10 11 6 0 10 -2 10 -4z m655 -26 c-16 -16 -34 -30 -40 -30 -27
0 -33 -22 -19 -73 18 -67 18 -92 -1 -111 -8 -8 -15 -21 -15 -28 -1 -24 -38 32
-59 88 -26 68 -26 85 -1 91 11 3 18 8 16 12 -3 4 4 7 14 8 21 2 106 49 116 64
3 5 8 9 11 9 4 0 -6 -13 -22 -30z m44 -152 c1 -110 0 -116 -18 -111 -27 7 -30
18 -32 134 -1 90 1 104 17 116 27 20 32 -2 33 -139z m-222 118 c3 -2 3 -14 1
-26 -3 -21 -4 -20 -25 8 l-23 31 21 -4 c12 -3 24 -6 26 -9z m-505 -33 c-5 -10
-17 -58 -28 -106 l-19 -88 -30 7 c-71 15 -115 52 -115 97 0 18 60 104 61 87 0
-10 2 -11 6 -2 3 7 25 12 59 12 42 0 56 4 61 17 4 10 8 12 10 6 3 -7 0 -20 -5
-30z m278 -93 c-22 -41 -61 -48 -75 -12 -9 25 33 53 61 40 18 -8 21 -15 14
-28z m-122 -85 c2 -66 6 -75 35 -75 26 -1 57 -55 57 -100 0 -16 4 -32 10 -35
5 -3 8 0 6 7 -11 34 -15 112 -6 98 7 -11 10 -3 10 31 0 54 19 99 41 99 9 0 20
7 23 16 3 8 10 12 16 9 7 -4 3 -20 -9 -43 -49 -93 -68 -226 -34 -239 9 -4 29
-20 45 -37 l28 -31 -3 74 c-2 67 0 76 19 86 11 5 19 16 16 24 -3 8 1 12 9 9 7
-2 29 -35 48 -71 34 -66 35 -68 18 -96 -28 -48 -22 -85 20 -120 40 -33 39 -47
-2 -37 -26 7 -29 10 -40 59 -8 40 -55 57 -153 57 -110 0 -128 15 -138 111 l-7
70 -64 46 c-35 25 -63 46 -61 48 2 1 27 23 56 49 29 25 54 46 56 46 1 0 3 -25
4 -55z m665 -17 c15 -6 27 -16 27 -22 0 -6 5 -4 10 4 12 19 13 8 1 -22 -33
-84 -34 -103 -11 -169 30 -84 39 -102 39 -69 0 14 -6 36 -13 49 -11 20 -11 30
2 65 14 38 51 90 59 83 1 -2 -1 -37 -6 -78 -6 -41 -11 -113 -12 -161 -1 -49
-5 -88 -9 -88 -4 0 -11 -10 -17 -22 -9 -20 -11 -18 -31 25 -24 51 -27 73 -12
82 16 10 12 49 -7 71 -31 33 -99 244 -86 266 4 7 15 5 66 -14z m284 -45 c-5
-12 -13 -23 -16 -23 -3 0 -7 -12 -8 -27 -1 -16 -5 -42 -8 -60 -8 -36 34 -138
67 -161 20 -14 74 -111 69 -126 -1 -5 2 -12 6 -15 4 -3 16 -21 25 -39 l18 -33
-58 6 c-31 3 -104 13 -161 22 l-103 16 7 140 c4 77 12 152 18 166 12 29 64 98
111 148 33 36 52 28 33 -14z m-373 11 c13 -33 7 -54 -16 -51 -32 3 -67 -71
-74 -158 l-6 -70 26 41 c14 22 36 45 49 51 22 10 23 15 17 60 -4 37 -2 53 10
66 15 16 18 12 38 -46 27 -77 27 -79 -1 -72 -18 5 -33 -2 -61 -30 -21 -20 -42
-49 -48 -65 -5 -17 -14 -30 -19 -30 -5 0 -9 -9 -9 -20 0 -11 -4 -20 -10 -20
-6 0 -6 -9 -1 -23 5 -13 9 -30 9 -38 -3 -42 4 -77 16 -95 15 -19 15 -19 31 1
16 20 16 19 11 -6 -5 -25 -5 -26 38 -19 25 4 56 15 71 24 24 16 27 23 21 54
-3 20 -10 38 -15 40 -9 3 2 58 13 70 3 3 16 -17 28 -44 12 -27 24 -53 26 -58
3 -5 -3 -6 -12 -3 -9 4 -16 2 -16 -3 0 -6 5 -10 11 -10 6 0 9 -6 7 -12 -3 -7
2 -19 10 -27 15 -16 10 -97 -7 -114 -15 -15 -41 0 -41 24 l0 22 -24 -22 c-20
-19 -25 -20 -38 -8 -12 13 -17 12 -37 -4 -28 -23 -45 -25 -37 -4 3 8 2 15 -3
15 -5 0 -14 -7 -21 -15 -7 -8 -22 -15 -35 -15 -26 0 -59 33 -52 52 3 8 6 6 6
-5 1 -15 3 -16 14 -5 9 9 12 35 10 83 -4 106 -13 128 -55 140 -44 12 -64 29
-71 58 -5 19 -4 20 6 6 13 -17 36 -27 83 -39 l31 -7 7 76 c6 85 23 141 64 218
28 54 45 65 56 37z m67 -210 c8 -10 8 -14 0 -14 -6 0 -11 4 -11 9 0 6 -12 6
-31 1 -24 -7 -28 -6 -20 3 14 18 47 18 62 1z m-660 -69 c29 -14 30 -15 7 -10
-41 8 -94 -42 -102 -98 -7 -48 12 -109 41 -127 15 -9 13 -10 -11 -5 -62 13
-100 61 -99 124 1 52 26 95 65 114 41 21 57 21 99 2z m301 -22 c17 -15 25 -43
13 -43 -7 0 -68 30 -110 54 l-30 18 55 -7 c30 -3 63 -13 72 -22z m329 4 c-13
-13 -26 -3 -16 12 3 6 11 8 17 5 6 -4 6 -10 -1 -17z m-406 -34 c19 -20 35 -43
35 -52 0 -9 9 -24 20 -34 17 -14 20 -15 20 -2 0 9 -7 27 -16 41 -9 13 -15 27
-12 29 9 9 59 -37 68 -61 7 -17 17 -24 36 -24 15 0 36 -8 47 -17 20 -17 20
-17 12 2 -4 11 -10 35 -13 53 -7 50 15 38 27 -16 5 -26 13 -56 16 -67 5 -14 4
-16 -3 -7 -5 8 -33 15 -65 16 -49 2 -56 0 -61 -18 -9 -30 -52 -58 -84 -54
l-27 4 32 19 c17 11 33 30 36 42 2 13 3 23 1 23 -1 0 -9 3 -18 6 -11 4 -16 0
-16 -13 0 -27 -9 -34 -31 -22 -11 5 -19 21 -20 37 0 15 -3 22 -5 16 -3 -6 -16
-9 -30 -6 -15 3 -32 -2 -45 -14 -19 -17 -19 -17 -18 35 1 28 6 54 11 57 5 3 7
0 6 -8 -2 -8 8 -14 27 -16 17 -2 36 -11 43 -20 11 -14 12 -14 12 4 0 10 3 29
6 42 6 20 3 22 -39 22 -50 0 -68 13 -40 29 31 18 51 12 88 -26z m-181 -4 c41
-19 50 -98 14 -123 -51 -36 -118 -4 -118 56 0 63 46 93 104 67z m1643 -14 c60
-30 94 -77 119 -161 33 -115 11 -269 -51 -350 -33 -43 -103 -74 -168 -74 -92
0 -162 47 -255 169 -13 17 -41 40 -62 52 -38 21 -39 23 -20 36 11 8 20 19 20
25 0 6 -8 4 -18 -5 -25 -23 -58 -21 -76 4 -10 15 -35 26 -78 35 l-63 13 81 -6
c68 -4 81 -3 81 10 0 8 -6 13 -14 10 -7 -3 -13 -1 -13 5 0 9 -44 16 -290 48
-63 8 -115 16 -116 17 -1 1 -5 14 -9 28 l-6 25 123 -17 c339 -48 329 -48 323
-29 -8 25 23 34 51 15 13 -9 24 -11 24 -5 0 5 -6 10 -12 10 -7 1 -2 10 11 20
18 15 38 20 87 20 49 0 64 3 64 14 0 24 52 78 95 97 56 26 112 24 172 -6z
m-1103 -47 c45 -2 26 -18 -21 -18 -22 0 -37 7 -47 22 -24 33 -19 45 7 19 15
-13 38 -22 61 -23z m-27 -60 c-3 -8 -6 -5 -6 6 -1 11 2 17 5 13 3 -3 4 -12 1
-19z m-457 -43 c-14 -17 -40 -20 -40 -4 0 5 -10 3 -22 -5 -27 -19 -48 -21 -48
-4 0 6 3 8 7 5 3 -4 17 0 29 8 13 8 30 12 38 9 10 -4 18 1 22 11 5 11 10 13
17 6 7 -7 6 -15 -3 -26z m50 1 c0 -11 -19 -15 -25 -6 -3 5 1 10 9 10 9 0 16
-2 16 -4z m45 -26 c6 -1 15 -2 20 -1 6 1 1 -6 -9 -14 -33 -25 -106 -15 -106
15 0 5 73 5 95 0z m203 -16 c12 -4 22 -13 22 -20 0 -17 -1 -17 -34 -4 -14 5
-26 14 -26 20 0 11 6 12 38 4z m405 -31 c-7 -2 -19 -2 -25 0 -7 3 -2 5 12 5
14 0 19 -2 13 -5z m60 -10 c-7 -2 -21 -2 -30 0 -10 3 -4 5 12 5 17 0 24 -2 18
-5z m60 -10 c-7 -2 -19 -2 -25 0 -7 3 -2 5 12 5 14 0 19 -2 13 -5z m40 -23
c73 -11 137 -22 143 -24 7 -3 9 -20 4 -49 -5 -38 -4 -44 8 -39 11 4 13 1 7 -7
-17 -28 -114 -61 -184 -62 -113 -2 -161 43 -161 152 0 59 -7 58 183 29z m287
-102 c25 -15 70 -58 101 -95 30 -37 74 -82 96 -99 23 -18 39 -35 35 -38 -3 -4
0 -4 9 -1 8 3 23 -1 34 -10 16 -12 16 -14 3 -9 -15 5 -17 -2 -12 -80 l5 -85
-92 50 c-101 55 -201 128 -225 164 -36 56 -54 123 -48 183 6 54 8 59 28 54 11
-3 41 -18 66 -34z m430 -488 c0 -5 -5 -10 -11 -10 -5 0 -7 5 -4 10 3 6 8 10
11 10 2 0 4 -4 4 -10z"/>
<path d="M2406 4148 c15 -29 61 -89 103 -133 66 -69 151 -187 151 -210 0 -11
-116 2 -172 20 -27 8 -48 10 -48 6 0 -5 24 -14 53 -21 28 -7 105 -28 170 -47
66 -19 121 -32 124 -29 10 10 -111 148 -217 247 -58 54 -123 126 -145 159 -21
33 -40 60 -42 60 -2 0 9 -24 23 -52z"/>
<path d="M2115 4139 c-11 -17 1 -21 15 -4 8 9 8 15 2 15 -6 0 -14 -5 -17 -11z"/>
<path d="M2056 4063 c-21 -24 -35 -43 -30 -43 10 0 78 80 73 84 -2 1 -21 -17
-43 -41z"/>
<path d="M1805 3894 c6 -5 25 -23 44 -39 l34 -30 -19 30 c-10 17 -18 31 -18
31 -1 1 -12 5 -26 9 -14 4 -21 4 -15 -1z"/>
<path d="M1842 3654 c-32 -19 -52 -25 -73 -20 -35 7 -37 -6 -6 -31 13 -10 30
-30 37 -43 7 -14 14 -26 15 -28 2 -2 18 6 36 17 18 11 36 18 41 15 4 -3 17 0
28 6 17 9 20 8 20 -11 0 -14 -10 -24 -30 -32 -16 -6 -30 -15 -30 -20 0 -5 -10
-6 -22 -2 -22 6 -22 6 -4 -9 23 -19 40 -21 30 -5 -5 9 2 10 22 6 16 -3 24 -4
17 -1 -7 3 -2 14 13 29 17 18 24 35 24 65 0 42 9 50 30 25 19 -22 32 -18 25 8
-19 60 -100 75 -173 31z m58 -33 c0 -27 -26 -50 -50 -44 -24 6 -25 20 -3 45
22 24 53 24 53 -1z"/>
<path d="M2186 3492 c2 -2 -2 -14 -8 -26 -10 -20 -10 -20 8 -4 12 12 15 21 8
27 -6 5 -9 6 -8 3z"/>
<path d="M2053 3373 c9 -2 25 -2 35 0 9 3 1 5 -18 5 -19 0 -27 -2 -17 -5z"/>
<path d="M2426 3452 c-2 -4 -1 -14 5 -22 7 -12 9 -10 9 8 0 23 -5 28 -14 14z"/>
<path d="M1646 3185 c-3 -9 -6 -24 -5 -33 0 -9 5 -4 10 12 9 32 6 48 -5 21z"/>
<path d="M1913 3193 c9 -2 25 -2 35 0 9 3 1 5 -18 5 -19 0 -27 -2 -17 -5z"/>
<path d="M1760 3156 c0 -2 9 -6 20 -9 11 -3 18 -1 14 4 -5 9 -34 13 -34 5z"/>
<path d="M2141 2795 c0 -5 6 -19 14 -29 8 -11 15 -15 15 -10 0 6 -7 19 -15 30
-8 10 -14 15 -14 9z"/>
<path d="M2366 2743 c-6 -14 -5 -15 5 -6 7 7 10 15 7 18 -3 3 -9 -2 -12 -12z"/>
<path d="M1998 2093 c7 -3 16 -2 19 1 4 3 -2 6 -13 5 -11 0 -14 -3 -6 -6z"/>
<path d="M552 2380 c0 -14 2 -19 5 -12 2 6 2 18 0 25 -3 6 -5 1 -5 -13z"/>
<path d="M545 2340 c-3 -5 -1 -10 6 -10 8 0 8 -4 -1 -15 -10 -12 -10 -15 4
-15 10 0 16 -9 17 -22 0 -13 3 -17 6 -10 2 6 13 12 24 12 12 0 19 7 19 20 0
13 -7 20 -20 20 -11 0 -20 7 -20 15 0 17 -25 20 -35 5z"/>
<path d="M675 2270 c-4 -6 -10 -8 -15 -5 -4 3 -13 -2 -20 -10 -7 -8 -21 -15
-31 -15 -14 0 -19 -8 -20 -27 0 -16 -2 -38 -3 -50 -1 -12 0 -22 3 -21 37 4 52
-4 57 -31 l6 -28 24 24 c18 18 27 42 34 91 5 37 10 70 10 75 0 11 -38 9 -45
-3z m-28 -102 c-3 -8 -6 -5 -6 6 -1 11 2 17 5 13 3 -3 4 -12 1 -19z"/>
<path d="M710 2130 c0 -11 -7 -20 -15 -20 -9 0 -12 -6 -9 -15 11 -27 30 -16
32 20 2 19 0 35 -3 35 -3 0 -5 -9 -5 -20z"/>
<path d="M626 2117 c3 -10 9 -15 12 -12 3 3 0 11 -7 18 -10 9 -11 8 -5 -6z"/>
<path d="M670 2028 c0 -11 12 -10 30 2 12 7 10 9 -8 7 -12 0 -22 -5 -22 -9z"/>
<path d="M1010 2025 c-14 -8 -32 -14 -41 -15 -24 0 -70 -63 -58 -81 7 -11 9
-11 9 4 0 10 9 28 21 40 19 20 20 21 13 2 -7 -19 -6 -18 18 3 13 12 30 22 36
22 7 0 12 6 12 13 0 8 4 7 10 -3 8 -12 10 -11 10 8 0 26 2 25 -30 7z"/>
<path d="M1406 1389 c-18 -56 -14 -74 8 -43 8 10 11 20 6 22 -5 2 -4 17 2 33
6 17 8 32 6 35 -3 2 -12 -19 -22 -47z"/>
<path d="M2010 772 c0 -31 90 -67 105 -42 4 6 -8 10 -29 10 -20 0 -36 3 -36 8
0 4 -9 13 -20 20 -11 7 -20 8 -20 4z"/>
<path d="M2180 760 c-13 -8 -13 -10 2 -10 9 0 20 5 23 10 8 13 -5 13 -25 0z"/>
<path d="M2740 751 c0 -6 4 -13 10 -16 6 -3 7 1 4 9 -7 18 -14 21 -14 7z"/>
<path d="M3134 745 c-3 -7 -4 -24 -1 -37 4 -21 4 -20 6 5 0 15 7 27 14 27 23
0 57 -45 63 -82 8 -44 -26 -83 -64 -73 -17 4 -23 2 -20 -7 3 -7 16 -14 29 -16
34 -4 70 36 79 88 10 53 3 80 -21 80 -11 0 -16 5 -14 13 4 8 -7 13 -30 14 -23
1 -38 -3 -41 -12z"/>
<path d="M2751 684 c0 -11 3 -14 6 -6 3 7 2 16 -1 19 -3 4 -6 -2 -5 -13z"/>
<path d="M3855 4789 c-78 -30 -202 -126 -258 -199 -32 -41 -58 -65 -71 -66
-40 -2 -46 -4 -46 -16 0 -7 -17 -30 -37 -53 -38 -40 -38 -40 12 5 48 43 53 45
112 45 70 0 104 -22 124 -82 11 -35 7 -121 -7 -144 -6 -12 -5 -12 9 0 15 12
17 10 17 -23 0 -26 -7 -44 -25 -61 -13 -14 -20 -25 -15 -25 5 0 18 12 30 27
17 22 20 38 18 96 -3 67 -2 70 29 96 18 15 56 35 85 45 73 26 159 70 186 96
32 31 68 90 76 127 10 42 -24 107 -65 129 -47 24 -116 25 -174 3z"/>
<path d="M1796 4483 c-9 -9 -94 -32 -126 -33 -14 -1 -19 -4 -12 -7 9 -3 -1
-14 -28 -30 -23 -14 -39 -27 -36 -31 3 -3 14 2 23 10 45 40 169 70 179 44 4
-9 30 -17 76 -21 46 -5 66 -10 57 -16 -8 -5 -10 -9 -6 -9 10 0 77 28 77 32 0
2 -17 2 -37 0 -50 -4 -115 10 -121 27 -4 11 7 13 57 7 33 -4 61 -3 61 1 0 4
-10 8 -22 8 -13 1 -44 4 -70 8 -39 5 -46 4 -41 -8 4 -11 1 -13 -11 -9 -10 4
-15 13 -12 20 6 15 3 18 -8 7z"/>
<path d="M1890 4390 c-9 -6 -10 -10 -3 -10 6 0 15 5 18 10 8 12 4 12 -15 0z"/>
<path d="M2120 4265 c7 -8 17 -15 22 -15 6 0 5 7 -2 15 -7 8 -17 15 -22 15 -6
0 -5 -7 2 -15z"/>
<path d="M2467 4169 c7 -7 15 -10 18 -7 3 3 -2 9 -12 12 -14 6 -15 5 -6 -5z"/>
<path d="M2504 4151 c7 -11 46 -35 46 -28 0 3 -12 12 -26 22 -15 9 -23 12 -20
6z"/>
<path d="M2579 4101 c13 -12 28 -21 35 -21 12 0 -5 14 -39 31 -16 8 -15 6 4
-10z"/>
<path d="M3528 3995 c-2 -41 0 -75 5 -75 4 0 7 34 7 75 0 41 -2 75 -4 75 -3 0
-6 -34 -8 -75z"/>
<path d="M935 4035 c23 -102 73 -217 122 -281 l27 -36 -44 5 c-32 5 -38 4 -20
-2 40 -14 142 -11 175 5 17 8 21 12 10 9 -10 -3 -38 -9 -61 -12 -40 -5 -42 -4
-78 43 -46 60 -90 151 -109 227 -16 61 -34 95 -22 42z"/>
<path d="M2660 4046 c0 -3 21 -19 48 -36 40 -27 42 -27 17 -5 -32 28 -65 49
-65 41z"/>
<path d="M651 4035 c0 -5 6 -21 14 -35 8 -14 14 -20 14 -15 0 6 -6 21 -14 35
-8 14 -14 21 -14 15z"/>
<path d="M822 4015 c0 -16 2 -22 5 -12 2 9 2 23 0 30 -3 6 -5 -1 -5 -18z"/>
<path d="M561 4010 c0 -8 4 -22 9 -30 12 -18 12 -2 0 25 -6 13 -9 15 -9 5z"/>
<path d="M2832 3930 c0 -14 2 -19 5 -12 2 6 2 18 0 25 -3 6 -5 1 -5 -13z"/>
<path d="M2907 3935 c18 -8 42 -29 53 -47 23 -38 27 -31 6 11 -14 26 -53 51
-79 51 -7 -1 3 -7 20 -15z"/>
<path d="M590 3925 c0 -5 5 -17 10 -25 5 -8 10 -10 10 -5 0 6 -5 17 -10 25 -5
8 -10 11 -10 5z"/>
<path d="M3518 3895 c-3 -11 -9 -29 -13 -40 -3 -11 1 -7 10 8 9 16 15 33 12
40 -2 6 -6 3 -9 -8z"/>
<path d="M1430 3768 c0 -9 7 -22 17 -29 15 -13 15 -12 3 11 -17 34 -20 36 -20
18z"/>
<path d="M2995 3693 c8 -17 12 -40 8 -50 -6 -17 -5 -17 15 1 21 19 22 18 32
-5 l11 -24 -7 25 c-3 14 -6 35 -6 48 0 22 -1 22 -18 7 -16 -14 -18 -14 -34 7
-16 22 -16 21 -1 -9z"/>
<path d="M424 3572 c22 -23 42 -40 44 -37 5 5 -27 37 -64 65 -10 8 -1 -5 20
-28z"/>
<path d="M751 3561 c8 -13 25 -28 38 -32 29 -11 19 4 -22 33 l-32 23 16 -24z"/>
<path d="M843 3573 c9 -2 23 -2 30 0 6 3 -1 5 -18 5 -16 0 -22 -2 -12 -5z"/>
<path d="M514 3501 c4 -6 16 -16 28 -22 15 -8 18 -8 14 0 -4 6 -16 16 -28 22
-15 8 -18 8 -14 0z"/>
<path d="M79 3482 c5 -10 18 -25 27 -33 11 -9 9 -2 -6 19 -26 35 -36 42 -21
14z"/>
<path d="M850 3494 c0 -7 52 -25 57 -20 2 2 -10 8 -26 14 -17 6 -31 9 -31 6z"/>
<path d="M120 3427 c0 -2 15 -16 33 -33 l32 -29 -29 33 c-28 30 -36 37 -36 29z"/>
<path d="M400 3346 c0 -3 9 -10 20 -16 11 -6 20 -8 20 -6 0 3 -9 10 -20 16
-11 6 -20 8 -20 6z"/>
<path d="M210 3326 c0 -2 8 -10 18 -17 15 -13 16 -12 3 4 -13 16 -21 21 -21
13z"/>
<path d="M640 3210 c-18 -12 -2 -12 25 0 13 6 15 9 5 9 -8 0 -22 -4 -30 -9z"/>
<path d="M910 3210 c-9 -6 -10 -10 -3 -10 6 0 15 5 18 10 8 12 4 12 -15 0z"/>
<path d="M908 3053 c7 -3 16 -2 19 1 4 3 -2 6 -13 5 -11 0 -14 -3 -6 -6z"/>
<path d="M755 2925 c104 -50 165 -75 165 -67 0 4 -12 12 -27 19 -194 84 -267
109 -138 48z"/>
<path d="M976 2900 c-14 -22 -31 -40 -36 -40 -5 0 -7 -7 -3 -16 6 -15 8 -15
20 2 18 23 55 94 50 94 -3 0 -16 -18 -31 -40z"/>
</g>
</svg>
